<svg width="26" height="26" viewBox="0 0 26 26" fill="none" xmlns="http://www.w3.org/2000/svg">
<path d="M25.8971 11.3084C25.8971 8.32229 23.4714 5.89292 20.4899 5.89292C20.0943 5.89292 19.7062 5.93531 19.3278 6.01852L19.7408 5.54897C20.2332 4.98909 20.5044 4.26977 20.5044 3.52364V2.75582C20.5044 2.27525 20.1138 1.88425 19.6337 1.88425H19.3878V1.32265C19.3878 0.593319 18.7945 0 18.0652 0H13.9163C13.187 0 12.5937 0.593319 12.5937 1.32265V1.8843H12.4984C12.0183 1.8843 11.6277 2.2753 11.6277 2.75587V3.5237C11.6277 4.26977 11.8989 4.98904 12.3914 5.54902L13.2932 6.57441C13.4497 6.7524 13.5359 6.98098 13.5359 7.22164C13.5359 7.43161 13.7061 7.59999 13.916 7.59999C14.126 7.59999 14.2961 7.42812 14.2961 7.21815C14.2961 6.79605 14.1427 6.38913 13.8641 6.07228L12.9622 5.0469C12.5919 4.62576 12.388 4.08479 12.388 3.52359V2.75577C12.388 2.69436 12.4375 2.64439 12.4985 2.64439H19.6338C19.6947 2.64439 19.7443 2.69431 19.7443 2.75577V3.52359C19.7443 4.08484 19.5404 4.62581 19.1701 5.0469L18.2682 6.07228C17.9896 6.38902 17.8362 6.796 17.8362 7.22159C17.8362 8.58395 18.2202 9.91419 18.9237 11.0674H13.2105C13.6237 10.3911 13.9279 9.65187 14.1084 8.86953C14.1555 8.66498 14.028 8.46094 13.8234 8.41369C13.6189 8.3665 13.4148 8.49412 13.3676 8.69867C13.0609 10.0286 12.3589 11.2223 11.3375 12.151C9.82754 13.524 8.03413 15.824 7.96914 19.0289C7.74921 18.9235 7.51315 18.8526 7.27177 18.8179C7.25412 18.2244 7.31987 16.8666 8.15644 15.7094L8.32052 15.4971C8.44748 15.3329 8.41911 15.097 8.25679 14.9675C8.09448 14.838 7.85831 14.8627 7.72635 15.0231C7.66297 15.1 7.60293 15.1778 7.54587 15.2563L6.143 17.0715C6.06541 16.373 5.83395 15.4956 5.20618 14.8668C4.02228 13.6809 1.95547 13.9059 1.86797 13.916C1.69276 13.9364 1.55457 14.0746 1.53428 14.2499C1.52412 14.3374 1.29964 16.407 2.48319 17.5925C3.20858 18.3191 4.26502 18.5158 4.99496 18.5571L4.46663 19.2407C3.30225 18.7094 2.00687 19.1377 1.06368 20.375C0.936413 20.5419 0.968583 20.7804 1.13555 20.9077C1.30252 21.035 1.54106 21.0028 1.66827 20.8358C2.40039 19.8753 3.37691 19.541 4.21707 19.9634C5.26723 20.4915 5.47007 21.8494 4.72177 23.3425C4.28049 24.223 3.67448 24.8283 3.01525 25.0468C2.57479 25.1929 2.12563 25.1613 1.71617 24.9554C0.784518 24.487 0.507787 23.3829 0.993873 22.0741C1.06696 21.8774 0.966711 21.6586 0.76995 21.5855C0.573189 21.5124 0.354374 21.6126 0.281284 21.8095C-0.341473 23.486 0.0876589 24.9875 1.37465 25.6346C1.95998 25.929 2.63306 25.9746 3.25445 25.7684C3.82162 25.5804 4.33573 25.2042 4.77513 24.6641C5.26531 25.4469 6.03091 25.8976 6.91497 25.8976C7.68467 25.8976 8.37945 25.5534 8.87125 24.9283C9.13711 24.5905 9.33589 24.1806 9.46482 23.7143C9.77241 24.1782 10.1262 24.6405 10.5234 25.0967C10.9668 25.6058 11.6095 25.8977 12.2867 25.8977H19.8454C20.5227 25.8977 21.1654 25.6058 21.6087 25.0967C22.8399 23.6829 23.6365 22.2393 23.976 20.8059C24.0244 20.6016 23.8981 20.3968 23.6938 20.3484C23.4895 20.3001 23.2847 20.4264 23.2363 20.6306C22.9254 21.9429 22.185 23.2775 21.0354 24.5974C20.7365 24.9406 20.3028 25.1374 19.8454 25.1374H12.2867C11.8293 25.1374 11.3956 24.9406 11.0966 24.5974C10.5006 23.9131 10.0099 23.2172 9.63619 22.5274C9.64191 22.3376 9.63908 22.1475 9.62668 21.9579C9.56897 21.0736 9.31075 20.3198 8.87115 19.761C8.82947 19.708 8.78542 19.6571 8.73999 19.6072C8.73084 19.4723 8.72619 19.3386 8.72619 19.2081C8.72619 16.1871 10.4244 14.0088 11.849 12.7135C12.1515 12.4385 12.4279 12.1419 12.6785 11.8277H19.4548C19.7049 12.1425 19.9813 12.4392 20.2831 12.7135C21.7077 14.0089 23.4059 16.1871 23.4059 19.2081C23.4059 19.4181 23.576 19.5882 23.786 19.5882C23.996 19.5882 24.1661 19.4181 24.1661 19.2081C24.1661 17.9404 23.8948 16.8119 23.474 15.8228C24.9767 14.8244 25.8971 13.125 25.8971 11.3084V11.3084ZM13.3539 1.32265C13.3539 1.01254 13.6062 0.760237 13.9163 0.760237H18.0651C18.3752 0.760237 18.6275 1.01254 18.6275 1.32265V1.8843H13.3539V1.32265ZM6.57011 17.762C6.50997 18.1939 6.50288 18.5655 6.51042 18.8261C6.06465 18.9002 5.65312 19.0957 5.30659 19.3968L6.57011 17.762ZM3.02107 17.0555C2.33539 16.3687 2.26372 15.2103 2.27287 14.654C2.82714 14.6435 3.97984 14.7146 4.66805 15.4039C5.35373 16.0908 5.4254 17.2491 5.41625 17.8054C4.86238 17.8162 3.70938 17.7448 3.02107 17.0555V17.0555ZM8.87889 22.3447C8.87889 24.0151 8.08962 25.1374 6.91487 25.1374C6.19156 25.1374 5.59475 24.7087 5.2558 23.9542C5.30558 23.8662 5.35444 23.7765 5.40122 23.6832C5.87229 22.7433 6.03516 21.8255 5.87219 21.0292C5.81194 20.7348 5.7078 20.4633 5.56455 20.2207C5.91058 19.7875 6.38245 19.5518 6.91482 19.5518C8.08962 19.5519 8.87889 20.6743 8.87889 22.3447V22.3447ZM20.7945 12.1511C19.8998 11.3376 19.25 10.308 18.898 9.18278C19.3555 8.83802 19.9124 8.65026 20.4899 8.65026C21.9528 8.65026 23.143 9.84266 23.143 11.3084C23.143 12.1685 22.7267 12.9686 22.0389 13.4647C21.6297 12.9599 21.2018 12.5215 20.7945 12.1511V12.1511ZM23.1433 15.128C22.945 14.7525 22.7269 14.4003 22.4968 14.0716C23.3733 13.433 23.9033 12.4089 23.9033 11.3084C23.9033 9.4235 22.3721 7.89002 20.4899 7.89002C19.8539 7.89002 19.2373 8.06691 18.7035 8.39594C18.6329 8.0094 18.5963 7.61542 18.5963 7.2182C18.5963 7.16165 18.6015 7.10571 18.6111 7.05073C19.2039 6.78705 19.835 6.65316 20.4899 6.65316C23.0523 6.65316 25.1369 8.74151 25.1369 11.3084C25.1369 12.8335 24.382 14.2623 23.1433 15.128V15.128Z" fill="black"/>
</svg>
